<svg width="113" height="26" viewBox="0 0 113 26" fill="none" xmlns="http://www.w3.org/2000/svg">
<path d="M102.722 25.8365C101.038 25.8365 99.5849 25.4213 98.3624 24.5909C97.1398 23.7604 96.194 22.6532 95.5251 21.2692C94.8792 19.8621 94.5563 18.3166 94.5563 16.6327C94.5563 14.8795 94.9254 13.311 95.6635 11.9269C96.4247 10.5198 97.4974 9.4126 98.8814 8.60525C100.288 7.77483 101.961 7.35962 103.899 7.35962C105.813 7.35962 107.439 7.77483 108.777 8.60525C110.138 9.4126 111.176 10.5198 111.891 11.9269C112.629 13.311 112.999 14.8565 112.999 16.5635V25.4213H109.019V22.1342H108.95C108.604 22.7801 108.154 23.3914 107.601 23.968C107.047 24.5217 106.367 24.9715 105.559 25.3175C104.752 25.6635 103.806 25.8365 102.722 25.8365ZM103.795 22.4456C104.833 22.4456 105.732 22.1919 106.494 21.6844C107.278 21.1538 107.878 20.4503 108.293 19.5737C108.731 18.6741 108.95 17.6707 108.95 16.5635C108.95 15.4562 108.743 14.4759 108.327 13.6224C107.912 12.7458 107.324 12.0538 106.563 11.5463C105.802 11.0158 104.89 10.7505 103.829 10.7505C102.722 10.7505 101.776 11.0158 100.992 11.5463C100.208 12.0538 99.608 12.7458 99.1928 13.6224C98.7776 14.4989 98.57 15.4908 98.57 16.5981C98.57 17.6822 98.7776 18.6741 99.1928 19.5737C99.608 20.4503 100.196 21.1538 100.957 21.6844C101.742 22.1919 102.687 22.4456 103.795 22.4456Z" fill="white"/>
<path d="M82.8006 25.8369C81.3935 25.8369 80.1133 25.6178 78.9599 25.1795C77.8296 24.7182 76.8608 24.0608 76.0535 23.2073C75.2692 22.3538 74.6579 21.3504 74.2196 20.197C73.8044 19.0206 73.5968 17.7288 73.5968 16.3217C73.5968 14.5225 73.9543 12.9539 74.6694 11.616C75.4076 10.2781 76.4225 9.24005 77.7143 8.5019C79.0061 7.74068 80.4824 7.36007 82.1432 7.36007C82.9736 7.36007 83.7579 7.48694 84.4961 7.74068C85.2342 7.99442 85.9032 8.35196 86.5029 8.81331C87.1027 9.27465 87.5871 9.81673 87.9562 10.4395H87.9908V0.163086H91.9699V16.3909C91.9699 18.3285 91.5777 20.0125 90.7934 21.4426C90.0322 22.8497 88.9596 23.9339 87.5756 24.6951C86.2146 25.4563 84.623 25.8369 82.8006 25.8369ZM82.8006 22.4461C83.8156 22.4461 84.7037 22.2038 85.4649 21.7194C86.2492 21.212 86.8605 20.5199 87.2988 19.6434C87.737 18.7668 87.9562 17.7519 87.9562 16.5985C87.9562 15.4451 87.737 14.4302 87.2988 13.5536C86.8605 12.6771 86.2492 11.9966 85.4649 11.5122C84.7037 11.0047 83.8041 10.751 82.766 10.751C81.7741 10.751 80.8861 11.0047 80.1018 11.5122C79.3175 12.0197 78.7062 12.7117 78.2679 13.5882C77.8296 14.4648 77.6105 15.4682 77.6105 16.5985C77.6105 17.7519 77.8296 18.7668 78.2679 19.6434C78.7062 20.5199 79.3175 21.212 80.1018 21.7194C80.9091 22.2038 81.8087 22.4461 82.8006 22.4461Z" fill="white"/>
<path d="M62.4244 25.8371C60.7174 25.8371 59.2296 25.5026 57.9609 24.8336C56.6922 24.1416 55.7119 23.1959 55.0198 21.9964C54.3278 20.7969 53.9818 19.4474 53.9818 17.9481V7.77539H57.9609V17.9135C57.9609 18.8131 58.157 19.6089 58.5491 20.3009C58.9643 20.9699 59.5064 21.5004 60.1754 21.8926C60.8674 22.2616 61.6171 22.4462 62.4244 22.4462C63.2318 22.4462 63.9699 22.2616 64.6389 21.8926C65.3309 21.5004 65.873 20.9699 66.2651 20.3009C66.6803 19.6089 66.8879 18.8131 66.8879 17.9135V7.77539H70.867V17.9481C70.867 19.4474 70.521 20.7969 69.829 21.9964C69.137 23.1959 68.1566 24.1416 66.8879 24.8336C65.6192 25.5026 64.1314 25.8371 62.4244 25.8371Z" fill="white"/>
<path d="M42.986 25.4218V12.7925C42.986 11.2239 43.4242 10.0014 44.3008 9.12483C45.2004 8.2252 46.4345 7.77539 48.0031 7.77539H52.259V11.1663H48.7297C48.1761 11.1663 47.7378 11.3277 47.4149 11.6507C47.115 11.9736 46.9651 12.4119 46.9651 12.9655V25.4218H42.986Z" fill="white"/>
<path d="M29.1253 25.8365C27.4414 25.8365 25.9881 25.4213 24.7656 24.5909C23.543 23.7604 22.5972 22.6532 21.9283 21.2692C21.2824 19.8621 20.9595 18.3166 20.9595 16.6327C20.9595 14.8795 21.3285 13.311 22.0667 11.9269C22.8279 10.5198 23.9005 9.4126 25.2846 8.60525C26.6917 7.77483 28.3641 7.35962 30.3017 7.35962C32.2163 7.35962 33.8425 7.77483 35.1804 8.60525C36.5414 9.4126 37.5794 10.5198 38.2945 11.9269C39.0327 13.311 39.4017 14.8565 39.4017 16.5635V25.4213H35.4226V22.1342H35.3534C35.0074 22.7801 34.5576 23.3914 34.004 23.968C33.4504 24.5217 32.7699 24.9715 31.9626 25.3175C31.1552 25.6635 30.2094 25.8365 29.1253 25.8365ZM30.1979 22.4456C31.2359 22.4456 32.1356 22.1919 32.8968 21.6844C33.6811 21.1538 34.2808 20.4503 34.696 19.5737C35.1343 18.6741 35.3534 17.6707 35.3534 16.5635C35.3534 15.4562 35.1458 14.4759 34.7306 13.6224C34.3154 12.7458 33.7272 12.0538 32.966 11.5463C32.2048 11.0158 31.2936 10.7505 30.2325 10.7505C29.1253 10.7505 28.1795 11.0158 27.3952 11.5463C26.6109 12.0538 26.0112 12.7458 25.596 13.6224C25.1808 14.4989 24.9732 15.4908 24.9732 16.5981C24.9732 17.6822 25.1808 18.6741 25.596 19.5737C26.0112 20.4503 26.5994 21.1538 27.3606 21.6844C28.1449 22.1919 29.0907 22.4456 30.1979 22.4456Z" fill="white"/>
<path d="M9.20384 25.8369C7.79673 25.8369 6.5165 25.6178 5.36314 25.1795C4.23284 24.7182 3.26402 24.0608 2.45666 23.2073C1.67238 22.3538 1.06109 21.3504 0.622816 20.197C0.207605 19.0206 0 17.7288 0 16.3217C0 14.5225 0.357542 12.9539 1.07263 11.616C1.81078 10.2781 2.82574 9.24005 4.11751 8.5019C5.40927 7.74068 6.88558 7.36007 8.54642 7.36007C9.37684 7.36007 10.1611 7.48694 10.8993 7.74068C11.6374 7.99442 12.3064 8.35196 12.9061 8.81331C13.5059 9.27465 13.9903 9.81673 14.3594 10.4395H14.394V0.163086H18.3731V16.3909C18.3731 18.3285 17.9809 20.0125 17.1966 21.4426C16.4354 22.8497 15.3628 23.9339 13.9788 24.6951C12.6178 25.4563 11.0261 25.8369 9.20384 25.8369ZM9.20384 22.4461C10.2188 22.4461 11.1069 22.2038 11.8681 21.7194C12.6524 21.212 13.2637 20.5199 13.702 19.6434C14.1402 18.7668 14.3594 17.7519 14.3594 16.5985C14.3594 15.4451 14.1402 14.4302 13.702 13.5536C13.2637 12.6771 12.6524 11.9966 11.8681 11.5122C11.1069 11.0047 10.2073 10.751 9.16924 10.751C8.17734 10.751 7.28925 11.0047 6.50497 11.5122C5.72068 12.0197 5.1094 12.7117 4.67112 13.5882C4.23284 14.4648 4.0137 15.4682 4.0137 16.5985C4.0137 17.7519 4.23284 18.7668 4.67112 19.6434C5.1094 20.5199 5.72068 21.212 6.50497 21.7194C7.31232 22.2038 8.21194 22.4461 9.20384 22.4461Z" fill="white"/>
</svg>
